<svg version="1.2" baseProfile="tiny-ps" xmlns="http://www.w3.org/2000/svg" viewBox="0 0 1920 1080" width="1920" height="1080">
	<title>dxframe-blue-dxfx01</title>
	<style>
		tspan { white-space:pre }
		.shp0 { fill: #2a7785 } 
		.shp1 { fill: #36cfea } 
		.shp2 { fill: #1b4b54 } 
	</style>
	<path id="dxbluesideleft-dark" class="shp0" d="M44.8 42.8L51.2 42.8C56.72 42.8 61.2 47.28 61.2 52.8L61.2 983.2C61.2 988.72 56.72 993.2 51.2 993.2L44.8 993.2C39.28 993.2 34.8 988.72 34.8 983.2L34.8 52.8C34.8 47.28 39.28 42.8 44.8 42.8Z" />
	<path id="dxbluesideleft-light" class="shp1" d="M48 92C50.65 92 52.8 94.15 52.8 96.8L52.8 951.2C52.8 953.85 50.65 956 48 956C45.35 956 43.2 953.85 43.2 951.2L43.2 96.8C43.2 94.15 45.35 92 48 92Z" />
	<path id="dxbluesidelright-dark" class="shp0" d="M1864.8 42.8L1871.2 42.8C1876.72 42.8 1881.2 47.28 1881.2 52.8L1881.2 983.2C1881.2 988.72 1876.72 993.2 1871.2 993.2L1864.8 993.2C1859.28 993.2 1854.8 988.72 1854.8 983.2L1854.8 52.8C1854.8 47.28 1859.28 42.8 1864.8 42.8Z" />
	<path id="dxbluesidelright-light" class="shp1" d="M1868 92C1870.65 92 1872.8 94.15 1872.8 96.8L1872.8 951.2C1872.8 953.85 1870.65 956 1868 956C1865.35 956 1863.2 953.85 1863.2 951.2L1863.2 96.8C1863.2 94.15 1865.35 92 1868 92Z" />
	<path id="dxbluedarker-slots" class="shp2" d="M106 972L1814 972C1819.52 972 1824 976.48 1824 982L1824 1025.12C1824 1047.22 1806.09 1065.12 1784 1065.12L136 1065.12C113.91 1065.12 96 1047.22 96 1025.12L96 982C96 976.48 100.48 972 106 972Z" />
	<path id="dxbluelight-slots" class="shp1" d="M223.59 1021.36L545.86 1021.36L518.61 1071.39L196.34 1071.39L223.59 1021.36ZM566.31 1021.36L888.58 1021.36L861.33 1071.39L539.06 1071.39L566.31 1021.36ZM1693.41 1021.36L1371.14 1021.36L1398.39 1071.39L1720.66 1071.39L1693.41 1021.36ZM1350.69 1021.36L1028.42 1021.36L1055.67 1071.39L1377.94 1071.39L1350.69 1021.36Z" />
	<path id="dxbluedark-slots" class="shp0" d="M238 1027L553.95 1027L527.24 1073.75L211.29 1073.75L238 1027ZM574 1027L889.95 1027L863.24 1073.75L547.29 1073.75L574 1027ZM1679 1027L1363.05 1027L1389.76 1073.75L1705.71 1073.75L1679 1027ZM1343 1027L1027.05 1027L1053.76 1073.75L1369.71 1073.75L1343 1027Z" />
	<path id="dxblue-topbar" class="shp0" d="M192 40L1728 40L1728 94L192 94L192 40Z" />
	<path id="dxblue-lightsides" class="shp1" d="M1855.72 107.65L1714.22 107.65L1767.28 25.85L1908.78 25.85L1855.72 107.65ZM9.22 25.85L150.72 25.85L203.78 107.65L62.28 107.65L9.22 25.85Z" />
	<path id="dxblue-darksides" class="shp0" d="M1774.2 103.93L1645.56 103.93L1693.8 29.56L1822.44 29.56L1774.2 103.93ZM95.56 29.56L224.2 29.56L272.44 103.93L143.8 103.93L95.56 29.56Z" />
	<path id="dxblue-darkcenter" class="shp0" d="M1117.7 104.47L989.06 104.47L1037.3 30.1L1165.94 30.1L1117.7 104.47ZM754.06 30.1L882.7 30.1L930.94 104.47L802.3 104.47L754.06 30.1Z" />
	<path id="dxblue-lightcenter" class="shp1" d="M1125.2 73.57L793.65 73.57C790 73.57 787.05 70.62 787.05 66.98C787.05 63.33 790 60.38 793.65 60.38L1125.2 60.38C1128.84 60.38 1131.79 63.33 1131.79 66.98C1131.79 70.62 1128.84 73.57 1125.2 73.57ZM1012.43 43.41L908.41 43.41C904.77 43.41 901.82 40.46 901.82 36.82C901.82 33.18 904.77 30.22 908.41 30.22L1012.43 30.22C1016.07 30.22 1019.02 33.18 1019.02 36.82C1019.02 40.46 1016.07 43.41 1012.43 43.41ZM944.84 102.33L975.85 102.33C976.45 102.33 976.97 102.59 977.41 103.11C977.85 103.63 978.07 104.25 978.07 104.97C978.07 105.68 977.85 106.3 977.41 106.82L961.9 125.25C961.46 125.77 960.94 126.03 960.34 126.03C959.74 126.03 959.22 125.77 958.79 125.25L943.28 106.82C942.84 106.3 942.62 105.68 942.62 104.97C942.62 104.25 942.84 103.63 943.28 103.11C943.72 102.59 944.24 102.33 944.84 102.33Z" />
	<path id="dxblue-bottombar" class="shp0" d="M192 945L1728 945L1728 999L192 999L192 945Z" />
	<path id="dxblue-lightsidesbottom" class="shp1" d="M1855.72 931.35L1714.22 931.35L1767.28 1013.15L1908.78 1013.15L1855.72 931.35ZM9.22 1013.15L150.72 1013.15L203.78 931.35L62.28 931.35L9.22 1013.15Z" />
	<path id="dxblue-darksidebottom" class="shp0" d="M1774.2 935.06L1645.56 935.06L1693.8 1009.43L1822.44 1009.43L1774.2 935.06ZM95.56 1009.43L224.2 1009.43L272.44 935.06L143.8 935.06L95.56 1009.43Z" />
	<path id="dxblue-darkcentebottom" class="shp0" d="M1117.7 934.53L989.06 934.53L1037.3 1008.9L1165.94 1008.9L1117.7 934.53ZM754.06 1008.9L882.7 1008.9L930.94 934.53L802.3 934.53L754.06 1008.9Z" />
	<path id="dxblue-lightcenterbottom" class="shp1" d="M1125.2 1008.57L793.65 1008.57C790 1008.57 787.05 1005.62 787.05 1001.98C787.05 998.33 790 995.38 793.65 995.38L1125.2 995.38C1128.84 995.38 1131.79 998.33 1131.79 1001.98C1131.79 1005.62 1128.84 1008.57 1125.2 1008.57ZM1012.43 978.41L908.41 978.41C904.77 978.41 901.82 975.46 901.82 971.82C901.82 968.18 904.77 965.22 908.41 965.22L1012.43 965.22C1016.07 965.22 1019.02 968.18 1019.02 971.82C1019.02 975.46 1016.07 978.41 1012.43 978.41Z" />
</svg>